# xmcd
#
# Track frame offsets:
#	150
#	21995
#	42995
#	72095
#	104870
#	137335
#	159760
#	191100
#	217425
#	236465
#	258945
#	281775
#	293305
#
# Disc length: 4464 seconds
#
# Revision: 1
# Processed by: cddbd v1.4PL0 Copyright (c) Steve Scherf et al.
# Submitted via: CDmax 2.0
#
DISCID=c2116e0d
DTITLE=Hot Tuna - Live at the Cedar Cultural Center, Minneapolis, MN 12.15.0
DTITLE=2 - d1
DYEAR=2002
DGENRE=Blues
TTITLE0=Big River Blues
TTITLE1=How Long Blues
TTITLE2=New Song (For The Morning)
TTITLE3=I Know You Rider
TTITLE4=Death Don't Have No Mercy
TTITLE5=Do Not Go Gentle
TTITLE6=Serpent of Dreams
TTITLE7=Third Week in Chelsea
TTITLE8=Waiting for a Train
TTITLE9=Blue Railroad Train
TTITLE10=Living in the Moment
TTITLE11=Embryonic Journey
TTITLE12=Good Shepherd
EXTD=Hot Tuna\n12-15-02\nCedar Cultural Center\nMinneapolis, MN \n\nSource:(O
EXTD=RTF, DFC/30') ADK A-51s LE > Lunatec V2 > AD1000 > D8\n\nConversion:DA
EXTD=T > Soundforge 4.0 (add fades) > CD Wave > Flac (Level 7]\nRecorded/Conv
EXTD=erted by Eric Swanson, whompinjack@yahoo.com\n\nDisc #1\n01. Big River B
EXTD=lues\n02. How Long Blues\n03. New Song (For The Morning]\n04. I Know Yo
EXTD=u Rider\n05. Death Don't Have No Mercy\n06. Do Not Go Gentle\n07. Serpen
EXTD=t of Dreams\n08. Third Week in Chelsea\n09. Waiting for a Train\n10. Blu
EXTD=e Railroad Train\n11. Living in the Moment\n12. Embryonic Journey\n13. G
EXTD=ood Shepherd\n\nDisc #2\n01. Trial by Fire\n02. San Francisco Bay Blues\
EXTD=n03. I See the Light \n04. Uncle Sam Blues\n05. 99 Year Blues\n06. I a
EXTD=m the Light of This World\n07. A Life Well Lived\n08. What Are They Doin
EXTD=g in Heaven Today?\n09. That'll Never Happen No More\nEncore:\n10. Wate
EXTD=r Song
EXTT0=
EXTT1=
EXTT2=
EXTT3=
EXTT4=
EXTT5=
EXTT6=
EXTT7=
EXTT8=
EXTT9=
EXTT10=
EXTT11=
EXTT12=
PLAYORDER=
